Abel Ferrara's cult crime drama Bad Lieutenant is given a sister film with this Werner Herzog-helmed production that takes its inspiration from the original, but focuses on new characters and plotlines. Nicolas Cage steps into Harvey Keitel's mold of a corrupt and drug-addled police officer, with the scummy setting moving from New York City to New Orleans. Eva Mendes, Val Kilmer, and Xzibit  co-star in the Nu Image/Millennium Films picture. 

   General
      Complete name : The.Bad.Lieutenant.Port.Of.Call.New.Orleans.2009.480p.BRRip.XviD.AC3.PRoDJi.avi
      Format : AVI
      Format/Info : Audio Video Interleave
      Format profile : OpenDML
      File size : 2.18 GiB
      Duration : 2h 2mn
      Overall bit rate : 2 560 Kbps
      Writing application : VirtualDubMod 1.5.10.1 (build 2439/release)
      Writing library : VirtualDubMod build 2439/release
   Video #0
      ID : 0
      Format : MPEG-4 Visual
      Format profile : AdvancedSimple@L5
      Format settings, BVOP : Yes
      Format settings, QPel : No
      Format settings, GMC : No warppoints
      Format settings, Matrix : Custom
      Codec ID : XVID
      Codec ID/Hint : XviD
      Duration : 2h 2mn
      Bit rate : 2 101 Kbps
      Width : 720 pixels
      Height : 384 pixels
      Display aspect ratio : 1.875
      Frame rate : 23.976 fps
      Resolution : 24 bits
      Colorimetry : 4:2:0
      Scan type : Progressive
      Bits/(Pixel*Frame) : 0.317
      Stream size : 1.79 GiB (82%)
      Writing library : XviD 1.2.1 (UTC 2008-12-04)
   Audio #1
      ID : 1
      Format : AC-3
      Format/Info : Audio Coding 3
      Codec ID : 2000
      Duration : 2h 2mn
      Bit rate mode : Constant
      Bit rate : 448 Kbps
      Channel(s) : 6 channels
      Channel positions : Front: L C R, Surround: L R, LFE
      Sampling rate : 48.0 KHz
      Stream size : 391 MiB (17%)
      Alignment : Split accross interleaves
      Interleave, duration : 42 ms (1.00 video frame)
      Interleave, preload duration : 500 ms
 
http://www.imdb.com/title/tt1095217/

English audio; English, Spanish and Portuguese subtitles